<svg width="286" height="29" viewBox="0 0 286 29" fill="none" xmlns="http://www.w3.org/2000/svg">
<path d="M5.40567 1.53086V28H0.610725V1.53086H5.40567ZM14.7059 16.3681V28H10.0273V8.14815H14.4991V11.5214H14.7318C15.1884 10.4099 15.9165 9.52675 16.916 8.87191C17.9241 8.21708 19.1691 7.88966 20.6511 7.88966C22.0211 7.88966 23.2145 8.18261 24.2312 8.76852C25.2565 9.35442 26.0492 10.2031 26.6093 11.3146C27.178 12.4261 27.458 13.7746 27.4494 15.36V28H22.7707V16.0837C22.7707 14.7568 22.4261 13.7186 21.7368 12.9689C21.0561 12.2193 20.1126 11.8445 18.9064 11.8445C18.0878 11.8445 17.3597 12.0255 16.7221 12.3873C16.0931 12.7406 15.5977 13.2533 15.2358 13.9253C14.8826 14.5974 14.7059 15.4117 14.7059 16.3681ZM41.8968 8.14815V11.767H30.1614V8.14815H41.8968ZM33.0953 28V6.27411C33.0953 4.93859 33.371 3.82709 33.9224 2.93962C34.4825 2.05215 35.2321 1.3887 36.1713 0.949266C37.1104 0.509837 38.153 0.290122 39.299 0.290122C40.1089 0.290122 40.8283 0.354744 41.4573 0.483989C42.0863 0.613233 42.5516 0.729552 42.8532 0.832947L41.9226 4.45177C41.7244 4.39146 41.4746 4.33115 41.173 4.27083C40.8714 4.2019 40.5354 4.16744 40.1649 4.16744C39.2947 4.16744 38.6786 4.37854 38.3167 4.80073C37.9634 5.21431 37.7868 5.80883 37.7868 6.5843V28H33.0953ZM53.1098 28.3877C51.1712 28.3877 49.491 27.9612 48.0693 27.1082C46.6476 26.2552 45.5448 25.0619 44.7607 23.5282C43.9852 21.9945 43.5975 20.2023 43.5975 18.1516C43.5975 16.101 43.9852 14.3045 44.7607 12.7622C45.5448 11.2198 46.6476 10.0222 48.0693 9.16917C49.491 8.31617 51.1712 7.88966 53.1098 7.88966C55.0485 7.88966 56.7287 8.31617 58.1503 9.16917C59.572 10.0222 60.6706 11.2198 61.4461 12.7622C62.2301 14.3045 62.6222 16.101 62.6222 18.1516C62.6222 20.2023 62.2301 21.9945 61.4461 23.5282C60.6706 25.0619 59.572 26.2552 58.1503 27.1082C56.7287 27.9612 55.0485 28.3877 53.1098 28.3877ZM53.1357 24.6397C54.1869 24.6397 55.0657 24.351 55.7722 23.7737C56.4788 23.1878 57.0044 22.4037 57.349 21.4215C57.7023 20.4392 57.8789 19.345 57.8789 18.1387C57.8789 16.9238 57.7023 15.8252 57.349 14.843C57.0044 13.8521 56.4788 13.0637 55.7722 12.4778C55.0657 11.8919 54.1869 11.599 53.1357 11.599C52.0586 11.599 51.1626 11.8919 50.4474 12.4778C49.7409 13.0637 49.211 13.8521 48.8577 14.843C48.5131 15.8252 48.3407 16.9238 48.3407 18.1387C48.3407 19.345 48.5131 20.4392 48.8577 21.4215C49.211 22.4037 49.7409 23.1878 50.4474 23.7737C51.1626 24.351 52.0586 24.6397 53.1357 24.6397ZM75.4055 28H66.436V1.53086H75.5865C78.2144 1.53086 80.4719 2.06076 82.3589 3.12056C84.2544 4.17175 85.7106 5.6839 86.7273 7.65702C87.744 9.63014 88.2524 11.991 88.2524 14.7396C88.2524 17.4968 87.7397 19.8663 86.7144 21.848C85.6977 23.8297 84.2286 25.3505 82.3072 26.4103C80.3944 27.4701 78.0938 28 75.4055 28ZM71.231 23.8513H75.1729C77.0168 23.8513 78.5548 23.5152 79.7869 22.8432C81.019 22.1625 81.9453 21.1501 82.5657 19.8059C83.186 18.4532 83.4962 16.7644 83.4962 14.7396C83.4962 12.7148 83.186 11.0346 82.5657 9.69907C81.9453 8.35494 81.0277 7.35115 79.8128 6.68769C78.6065 6.01563 77.1073 5.67959 75.3151 5.67959H71.231V23.8513ZM101.026 28.3877C99.0357 28.3877 97.3168 27.9742 95.8692 27.147C94.4303 26.3112 93.3231 25.1308 92.5477 23.6057C91.7722 22.072 91.3845 20.2669 91.3845 18.1904C91.3845 16.1483 91.7722 14.3562 92.5477 12.8139C93.3317 11.2629 94.426 10.0566 95.8305 9.19502C97.2349 8.32478 98.8849 7.88966 100.781 7.88966C102.004 7.88966 103.159 8.08783 104.244 8.48418C105.339 8.87191 106.304 9.47505 107.139 10.2936C107.984 11.1121 108.647 12.1547 109.13 13.4213C109.612 14.6793 109.853 16.1785 109.853 17.919V19.3536H93.5816V16.2H105.369C105.36 15.3039 105.166 14.5069 104.787 13.809C104.408 13.1025 103.878 12.5467 103.197 12.1418C102.525 11.7368 101.741 11.5343 100.845 11.5343C99.8887 11.5343 99.0486 11.767 98.3249 12.2323C97.6011 12.6889 97.0367 13.2921 96.6318 14.0417C96.2354 14.7827 96.0329 15.5969 96.0243 16.4844V19.2373C96.0243 20.3918 96.2354 21.3827 96.6576 22.2099C97.0798 23.0284 97.67 23.6574 98.4283 24.0968C99.1865 24.5276 100.074 24.7431 101.091 24.7431C101.771 24.7431 102.387 24.6483 102.939 24.4587C103.49 24.2605 103.969 23.9719 104.373 23.5928C104.778 23.2137 105.084 22.7441 105.291 22.184L109.66 22.6752C109.384 23.8297 108.858 24.8378 108.083 25.6995C107.316 26.5525 106.334 27.2159 105.136 27.6898C103.938 28.1551 102.568 28.3877 101.026 28.3877ZM130.611 8.14815L123.542 28H118.372L111.302 8.14815H116.291L120.853 22.8949H121.06L125.635 8.14815H130.611ZM133.692 28V1.53086H150.907V5.55035H138.486V12.7363H150.015V16.7558H138.486V23.9805H151.01V28H133.692ZM170.918 13.3954L166.653 13.8607C166.532 13.4299 166.321 13.0249 166.02 12.6458C165.727 12.2667 165.331 11.9608 164.831 11.7282C164.331 11.4956 163.719 11.3792 162.996 11.3792C162.022 11.3792 161.203 11.5903 160.54 12.0125C159.885 12.4347 159.562 12.9819 159.571 13.6539C159.562 14.2312 159.773 14.7008 160.204 15.0627C160.643 15.4246 161.367 15.7218 162.375 15.9545L165.761 16.6782C167.64 17.0832 169.036 17.7251 169.949 18.604C170.871 19.4828 171.336 20.6331 171.345 22.0548C171.336 23.3041 170.97 24.407 170.246 25.3634C169.531 26.3112 168.536 27.0522 167.261 27.5864C165.985 28.1206 164.521 28.3877 162.866 28.3877C160.436 28.3877 158.481 27.8794 156.999 26.8627C155.517 25.8373 154.633 24.4113 154.349 22.5847L158.911 22.1453C159.118 23.0413 159.558 23.7177 160.23 24.1744C160.902 24.631 161.776 24.8594 162.853 24.8594C163.965 24.8594 164.857 24.631 165.529 24.1744C166.209 23.7177 166.55 23.1534 166.55 22.4813C166.55 21.9126 166.33 21.443 165.891 21.0725C165.46 20.702 164.788 20.4177 163.874 20.2195L160.488 19.5087C158.584 19.1123 157.175 18.4446 156.262 17.5054C155.349 16.5576 154.896 15.36 154.905 13.9124C154.896 12.6889 155.228 11.6291 155.9 10.733C156.581 9.82832 157.524 9.1304 158.73 8.63927C159.945 8.13953 161.345 7.88966 162.931 7.88966C165.257 7.88966 167.088 8.3851 168.424 9.37596C169.768 10.3668 170.599 11.7067 170.918 13.3954ZM184.752 8.14815V11.767H173.339V8.14815H184.752ZM176.157 3.39198H180.836V22.0289C180.836 22.6579 180.93 23.1404 181.12 23.4765C181.318 23.8039 181.577 24.0279 181.895 24.1485C182.214 24.2692 182.567 24.3295 182.955 24.3295C183.248 24.3295 183.515 24.3079 183.756 24.2649C184.006 24.2218 184.196 24.183 184.325 24.1485L185.114 27.8061C184.864 27.8923 184.506 27.9871 184.041 28.0905C183.584 28.1939 183.024 28.2542 182.361 28.2714C181.189 28.3059 180.133 28.1292 179.194 27.7415C178.255 27.3452 177.51 26.7334 176.958 25.9062C176.415 25.0791 176.148 24.0451 176.157 22.8044V3.39198ZM200.954 19.6508V8.14815H205.632V28H201.096V24.4716H200.889C200.441 25.5831 199.704 26.4922 198.679 27.1987C197.662 27.9052 196.408 28.2585 194.918 28.2585C193.617 28.2585 192.467 27.9698 191.467 27.3926C190.476 26.8066 189.701 25.9579 189.141 24.8465C188.581 23.7263 188.301 22.3736 188.301 20.7882V8.14815H192.979V20.0644C192.979 21.3224 193.324 22.3219 194.013 23.0629C194.702 23.8039 195.607 24.1744 196.727 24.1744C197.417 24.1744 198.084 24.0064 198.731 23.6703C199.377 23.3343 199.907 22.8346 200.32 22.1711C200.742 21.499 200.954 20.659 200.954 19.6508ZM217.446 28.349C215.887 28.349 214.491 27.9483 213.259 27.147C212.027 26.3457 211.053 25.1825 210.338 23.6574C209.623 22.1323 209.265 20.2798 209.265 18.0999C209.265 15.8942 209.627 14.033 210.351 12.5166C211.083 10.9915 212.07 9.84124 213.31 9.06578C214.551 8.2817 215.934 7.88966 217.459 7.88966C218.622 7.88966 219.579 8.08783 220.328 8.48418C221.078 8.87191 221.672 9.3415 222.112 9.89294C222.551 10.4358 222.892 10.9484 223.133 11.4309H223.327V1.53086H228.018V28H223.417V24.8723H223.133C222.892 25.3548 222.543 25.8675 222.086 26.4103C221.629 26.9445 221.026 27.4012 220.277 27.7803C219.527 28.1594 218.584 28.349 217.446 28.349ZM218.752 24.5104C219.742 24.5104 220.587 24.2433 221.285 23.7091C221.983 23.1663 222.513 22.4124 222.874 21.4473C223.236 20.4823 223.417 19.3579 223.417 18.0741C223.417 16.7903 223.236 15.6744 222.874 14.7267C222.521 13.7789 221.996 13.0422 221.298 12.5166C220.608 11.991 219.76 11.7282 218.752 11.7282C217.709 11.7282 216.839 11.9996 216.141 12.5424C215.443 13.0853 214.917 13.8349 214.564 14.7913C214.211 15.7477 214.034 16.8419 214.034 18.0741C214.034 19.3148 214.211 20.422 214.564 21.3956C214.926 22.3607 215.456 23.1232 216.154 23.6833C216.86 24.2347 217.726 24.5104 218.752 24.5104ZM241.429 28.3877C239.438 28.3877 237.719 27.9742 236.272 27.147C234.833 26.3112 233.726 25.1308 232.95 23.6057C232.175 22.072 231.787 20.2669 231.787 18.1904C231.787 16.1483 232.175 14.3562 232.95 12.8139C233.734 11.2629 234.829 10.0566 236.233 9.19502C237.637 8.32478 239.287 7.88966 241.183 7.88966C242.406 7.88966 243.561 8.08783 244.647 8.48418C245.741 8.87191 246.706 9.47505 247.542 10.2936C248.386 11.1121 249.05 12.1547 249.532 13.4213C250.015 14.6793 250.256 16.1785 250.256 17.919V19.3536H233.984V16.2H245.771C245.763 15.3039 245.569 14.5069 245.19 13.809C244.81 13.1025 244.281 12.5467 243.6 12.1418C242.928 11.7368 242.144 11.5343 241.248 11.5343C240.291 11.5343 239.451 11.767 238.727 12.2323C238.004 12.6889 237.439 13.2921 237.034 14.0417C236.638 14.7827 236.435 15.5969 236.427 16.4844V19.2373C236.427 20.3918 236.638 21.3827 237.06 22.2099C237.482 23.0284 238.073 23.6574 238.831 24.0968C239.589 24.5276 240.476 24.7431 241.493 24.7431C242.174 24.7431 242.79 24.6483 243.341 24.4587C243.893 24.2605 244.371 23.9719 244.776 23.5928C245.181 23.2137 245.487 22.7441 245.694 22.184L250.062 22.6752C249.786 23.8297 249.261 24.8378 248.485 25.6995C247.718 26.5525 246.736 27.2159 245.539 27.6898C244.341 28.1551 242.971 28.3877 241.429 28.3877ZM258.529 16.3681V28H253.85V8.14815H258.322V11.5214H258.555C259.011 10.4099 259.739 9.52675 260.739 8.87191C261.747 8.21708 262.992 7.88966 264.474 7.88966C265.844 7.88966 267.037 8.18261 268.054 8.76852C269.079 9.35442 269.872 10.2031 270.432 11.3146C271.001 12.4261 271.281 13.7746 271.272 15.36V28H266.593V16.0837C266.593 14.7568 266.249 13.7186 265.56 12.9689C264.879 12.2193 263.935 11.8445 262.729 11.8445C261.911 11.8445 261.182 12.0255 260.545 12.3873C259.916 12.7406 259.42 13.2533 259.059 13.9253C258.705 14.5974 258.529 15.4117 258.529 16.3681ZM285.577 8.14815V11.767H274.165V8.14815H285.577ZM276.983 3.39198H281.661V22.0289C281.661 22.6579 281.756 23.1404 281.946 23.4765C282.144 23.8039 282.402 24.0279 282.721 24.1485C283.04 24.2692 283.393 24.3295 283.781 24.3295C284.074 24.3295 284.341 24.3079 284.582 24.2649C284.832 24.2218 285.022 24.183 285.151 24.1485L285.939 27.8061C285.689 27.8923 285.332 27.9871 284.867 28.0905C284.41 28.1939 283.85 28.2542 283.186 28.2714C282.015 28.3059 280.959 28.1292 280.02 27.7415C279.081 27.3452 278.335 26.7334 277.784 25.9062C277.241 25.0791 276.974 24.0451 276.983 22.8044V3.39198Z" fill="#C92071"/>
</svg>
